<svg width="39" height="41" viewBox="0 0 39 41" fill="none" xmlns="http://www.w3.org/2000/svg">
<path d="M16.6815 1.03567C13.2384 1.54449 9.90561 2.97973 7.07635 5.37346L13.1635 11.6067C15.3479 8.72177 16.5651 5.06381 16.6815 1.03567ZM19.4944 18.0896L31.903 5.36426C28.5687 2.54583 24.543 1.05693 20.4628 0.84898C20.3704 5.99692 18.7763 10.7023 15.8531 14.3609L19.4944 18.0896ZM4.40446 8.11356C2.07067 11.0147 0.672585 14.431 0.17862 17.9598C4.10933 17.8375 7.68585 16.5875 10.4916 14.3468L4.40446 8.11356ZM25.8096 24.5564C29.3697 21.5662 33.9603 19.9291 38.9916 19.8225C38.7856 15.6414 37.3297 11.5172 34.5769 8.10237L22.1683 20.8277L25.8096 24.5564ZM19.4964 23.5678L7.08783 36.2931C10.4222 39.1035 14.4478 40.6004 18.528 40.8084C18.6283 35.6524 20.2224 30.947 23.1377 27.2965L19.4964 23.5678ZM34.5864 33.5438C36.9202 30.6427 38.3182 27.2264 38.8122 23.6976C34.8736 23.8279 31.305 25.078 28.4993 27.3106L34.5864 33.5438ZM13.1812 17.101C9.61323 20.0992 5.02271 21.7444 -0.000756482 21.8349C0.205195 26.016 1.66111 30.1402 4.4139 33.555L16.8225 20.8297L13.1812 17.101ZM22.3093 40.6217C25.7525 40.1129 29.0852 38.6776 31.9145 36.2839L25.8274 30.0507C23.6508 32.9275 22.4336 36.5936 22.3093 40.6217Z" fill="white"/>
</svg>
