<svg width="44" height="35" viewBox="0 0 44 35" fill="none" xmlns="http://www.w3.org/2000/svg">
<path d="M43.1722 31.3227L23.9763 1.57938C23.5838 0.971235 22.908 0.603521 22.1823 0.603678C21.4567 0.603834 20.781 0.971839 20.3887 1.58015L1.20226 31.3318C0.995213 31.6528 0.878741 32.0235 0.865083 32.4048C0.851426 32.7862 0.941085 33.1642 1.12464 33.4991C1.30829 33.8339 1.57902 34.1133 1.90841 34.3079C2.2378 34.5024 2.61369 34.6051 2.99662 34.6049L41.3789 34.5966C42.1592 34.5965 42.8768 34.172 43.2505 33.4893C43.434 33.1545 43.5235 32.7766 43.5097 32.3953C43.496 32.014 43.3794 31.6435 43.1722 31.3227ZM22.1833 6.65808L27.8748 15.4762L22.1847 15.4774L17.9207 19.728L15.3841 17.2013L22.1833 6.65808Z" fill="white"/>
</svg>