<svg width="33" height="38" viewBox="0 0 33 38" fill="none" xmlns="http://www.w3.org/2000/svg">
<path d="M30.1221 0.756999C27.0817 1.0126 21.039 1.94066 17.3094 5.30671C17.0521 5.53896 16.9063 5.9518 16.9064 6.38338L16.9157 36.1253C16.916 37.0694 17.6169 37.6657 18.2076 37.2274C22.0449 34.3795 27.5956 33.6004 30.3402 33.3866C31.2773 33.3134 32.0054 32.2064 32.005 30.8798L31.9965 3.26549C31.9966 1.81791 31.144 0.671521 30.1221 0.756999ZM14.7279 5.30789C10.9968 1.94529 4.95346 1.02362 1.91299 0.769994C0.890991 0.685457 0.0391495 1.83263 0.0395991 3.28021L0.0481755 30.8953C0.0485878 32.2227 0.777405 33.3291 1.71451 33.4006C4.46036 33.6119 10.0143 34.3867 13.8534 37.2326C14.4428 37.6697 15.1411 37.0735 15.1408 36.1318L15.1316 6.36948C15.1314 5.93709 14.9859 5.54073 14.7279 5.30789Z" fill="white"/>
</svg>