<svg width="61" height="60" viewBox="0 0 61 60" fill="none" xmlns="http://www.w3.org/2000/svg">
<path d="M54.5377 0H7.39488C3.84577 0 0.966309 2.87946 0.966309 6.42857V53.5714C0.966309 57.1205 3.84577 60 7.39488 60H54.5377C58.0868 60 60.9663 57.1205 60.9663 53.5714V6.42857C60.9663 2.87946 58.0868 0 54.5377 0ZM47.9886 21.2679C48.0154 21.6429 48.0154 22.0312 48.0154 22.4062C48.0154 34.0179 39.1761 47.3973 23.0243 47.3973C18.0422 47.3973 13.4217 45.9509 9.53774 43.4598C10.2476 43.5402 10.9306 43.567 11.6538 43.567C15.7654 43.567 19.5422 42.1741 22.5556 39.817C18.6985 39.7366 15.4574 37.2054 14.3458 33.7232C15.6985 33.9241 16.9172 33.9241 18.3101 33.5625C14.2922 32.7455 11.2788 29.2098 11.2788 24.9375V24.8304C12.444 25.4866 13.8101 25.8884 15.2431 25.942C14.0383 25.1406 13.0507 24.0534 12.3683 22.7774C11.6859 21.5015 11.33 20.0764 11.3324 18.6295C11.3324 16.9955 11.761 15.4955 12.5243 14.1964C16.8502 19.5268 23.3458 23.0089 30.6315 23.3839C29.386 17.4241 33.8458 12.5893 39.2029 12.5893C41.7342 12.5893 44.0109 13.6473 45.6181 15.3616C47.6002 14.9866 49.502 14.25 51.1895 13.2455C50.5333 15.2812 49.1538 16.9955 47.3324 18.0804C49.1002 17.8929 50.8145 17.3973 52.3949 16.7143C51.2029 18.4688 49.7029 20.0223 47.9886 21.2679Z" fill="white"/>
</svg>