<svg width="61" height="61" viewBox="0 0 61 61" fill="none" xmlns="http://www.w3.org/2000/svg">
<path d="M30.6647 15.5894C22.1515 15.5894 15.2848 22.4576 15.2848 30.9727C15.2848 39.4877 22.1515 46.3559 30.6647 46.3559C39.1778 46.3559 46.0445 39.4877 46.0445 30.9727C46.0445 22.4576 39.1778 15.5894 30.6647 15.5894ZM30.6647 40.9738C25.1633 40.9738 20.6658 36.4887 20.6658 30.9727C20.6658 25.4566 25.1499 20.9715 30.6647 20.9715C36.1794 20.9715 40.6635 25.4566 40.6635 30.9727C40.6635 36.4887 36.166 40.9738 30.6647 40.9738ZM50.2609 14.9602C50.2609 16.955 48.6546 18.5482 46.6736 18.5482C44.6792 18.5482 43.0863 16.9416 43.0863 14.9602C43.0863 12.9787 44.6925 11.3721 46.6736 11.3721C48.6546 11.3721 50.2609 12.9787 50.2609 14.9602ZM60.4471 18.6018C60.2196 13.7954 59.122 9.53787 55.6016 6.03011C52.0947 2.52236 47.8381 1.42451 43.0328 1.18352C38.0802 0.902367 23.2358 0.902367 18.2832 1.18352C13.4912 1.41113 9.23465 2.50897 5.71429 6.01673C2.19393 9.52448 1.10972 13.782 0.868779 18.5884C0.587686 23.5421 0.587686 38.3898 0.868779 43.3435C1.09633 48.1499 2.19393 52.4074 5.71429 55.9152C9.23465 59.423 13.4778 60.5208 18.2832 60.7618C23.2358 61.0429 38.0802 61.0429 43.0328 60.7618C47.8381 60.5342 52.0947 59.4363 55.6016 55.9152C59.1086 52.4074 60.2062 48.1499 60.4471 43.3435C60.7282 38.3898 60.7282 23.5555 60.4471 18.6018ZM54.0489 48.6587C53.0049 51.2828 50.9837 53.3045 48.3468 54.3621C44.3981 55.9286 35.0283 55.5671 30.6647 55.5671C26.301 55.5671 16.9179 55.9152 12.9826 54.3621C10.359 53.3179 8.33783 51.2962 7.28038 48.6587C5.71429 44.7091 6.0757 35.3373 6.0757 30.9727C6.0757 26.608 5.72767 17.2228 7.28038 13.2866C8.32444 10.6625 10.3456 8.64085 12.9826 7.58317C16.9312 6.01673 26.301 6.37821 30.6647 6.37821C35.0283 6.37821 44.4114 6.03011 48.3468 7.58317C50.9703 8.62746 52.9915 10.6491 54.0489 13.2866C55.615 17.2362 55.2536 26.608 55.2536 30.9727C55.2536 35.3373 55.615 44.7225 54.0489 48.6587Z" fill="white"/>
</svg>