<svg width="61" height="60" viewBox="0 0 61 60" fill="none" xmlns="http://www.w3.org/2000/svg">
<path d="M53.579 0H6.43614C4.73118 0 3.09604 0.677294 1.89045 1.88289C0.684862 3.08848 0.00756836 4.72361 0.00756836 6.42857L0.00756836 53.5714C0.00756836 55.2764 0.684862 56.9115 1.89045 58.1171C3.09604 59.3227 4.73118 60 6.43614 60H24.8178V39.6013H16.3803V30H24.8178V22.6821C24.8178 14.3585 29.7732 9.76071 37.3629 9.76071C40.9977 9.76071 44.7986 10.4089 44.7986 10.4089V18.5786H40.6107C36.4844 18.5786 35.1973 21.1393 35.1973 23.7656V30H44.4089L42.9357 39.6013H35.1973V60H53.579C55.284 60 56.9191 59.3227 58.1247 58.1171C59.3303 56.9115 60.0076 55.2764 60.0076 53.5714V6.42857C60.0076 4.72361 59.3303 3.08848 58.1247 1.88289C56.9191 0.677294 55.284 0 53.579 0Z" fill="white"/>
</svg>