<svg width="61" height="61" viewBox="0 0 61 61" fill="none" xmlns="http://www.w3.org/2000/svg">
<path d="M30.1672 0.25C13.5875 0.25 0.167236 13.6676 0.167236 30.25C0.167236 46.8297 13.5849 60.25 30.1672 60.25C35.9923 60.25 41.7005 58.5395 46.5472 55.3843C47.9995 54.4389 48.3164 52.4462 47.2188 51.1054L45.9878 49.6014C45.0598 48.4679 43.4258 48.1901 42.1926 48.981C38.6253 51.269 34.4391 52.5081 30.1672 52.5081C17.8941 52.5081 7.90917 42.5231 7.90917 30.25C7.90917 17.9769 17.8941 7.99194 30.1672 7.99194C42.2808 7.99194 52.4253 14.962 52.4253 27.3468C52.4253 32.0386 49.8737 36.993 45.3886 37.4709C43.2899 37.416 43.343 35.9156 43.7584 33.839L46.5931 19.1886C46.9398 17.3972 45.5674 15.7339 43.7428 15.7339H38.3016C37.8998 15.7339 37.5121 15.8818 37.2125 16.1493C36.9128 16.4169 36.7221 16.7854 36.6768 17.1846L36.6755 17.1958C34.8977 15.0303 31.7826 14.5617 29.421 14.5617C20.3992 14.5617 12.7479 22.09 12.7479 32.8835C12.7479 40.783 17.1977 45.6903 24.3608 45.6903C27.625 45.6903 31.3006 43.7987 33.4323 41.0533C34.5841 45.1787 38.3451 45.1786 41.9859 45.1786C55.1603 45.1786 60.1672 36.5159 60.1672 27.3468C60.1672 10.8532 46.8636 0.25 30.1672 0.25ZM27.5447 37.0762C24.8532 37.0762 23.1813 35.1863 23.1813 32.1442C23.1813 26.7015 26.9046 23.3464 30.2737 23.3464C32.9703 23.3464 34.5803 25.19 34.5803 28.2782C34.5803 33.7292 30.4825 37.0762 27.5447 37.0762Z" fill="white"/>
</svg>