<svg width="42" height="33" viewBox="0 0 42 33" fill="none" xmlns="http://www.w3.org/2000/svg">
<path d="M40.1052 26.7998C38.5745 26.5998 37.1077 25.926 35.9827 24.8947C34.9788 23.9715 33.5477 23.9545 32.5509 24.8937C29.8526 27.4204 24.9185 27.4189 22.1772 24.7659C21.216 23.8344 19.8276 24.0086 18.8523 24.9146C16.1468 27.4163 11.2412 27.4066 8.51416 24.7702C7.55292 23.8387 6.14319 24.0295 5.1607 24.9355C4.05718 25.9495 2.59764 26.6059 1.05263 26.7966C0.490167 26.863 0.0843673 27.4448 0.084406 28.1017L0.0845635 30.7788C0.084608 31.5354 0.625758 32.1758 1.27366 32.1094C3.32418 31.9022 5.26787 31.1628 6.92673 29.9577C10.9496 32.8356 16.6812 32.7957 20.5969 29.9618C24.6198 32.8397 30.3513 32.7998 34.2671 29.9658C35.9261 31.1469 37.8913 31.9041 39.8991 32.1125C40.547 32.1792 41.0881 31.5392 41.088 30.7826L41.0879 28.1553C41.0949 27.4902 40.682 26.8748 40.1052 26.7998ZM40.1045 14.8275C38.5737 14.6275 37.107 13.9536 35.982 12.9223C34.978 11.9991 33.5469 11.9821 32.5502 12.9213C29.8519 15.448 24.9178 15.4465 22.1765 12.7935C21.2153 11.862 19.8269 12.0362 18.8515 12.9422C16.1461 15.4439 11.2405 15.4342 8.51346 12.7978C7.55222 11.8663 6.14249 12.0571 5.16 12.9631C4.05647 13.9771 2.59694 14.6335 1.05193 14.8242C0.489462 14.8906 0.0836627 15.4725 0.0837014 16.1293L0.083859 18.8064C0.0839035 19.563 0.625053 20.2034 1.27296 20.1371C3.32348 19.9298 5.26716 19.1904 6.92603 17.9854C10.9489 20.8632 16.6804 20.8234 20.5962 17.9894C24.6191 20.8673 30.3506 20.8274 34.2664 17.9934C35.9254 19.1745 37.8906 19.9317 39.8984 20.1401C40.5463 20.2068 41.0874 19.5668 41.0873 18.8102L41.0872 16.183C41.0942 15.5178 40.6813 14.9024 40.1045 14.8275ZM40.1038 2.85507C38.573 2.64677 37.1063 1.9812 35.9813 0.949917C34.9773 0.0267496 33.5462 0.00969924 32.5495 0.948904C29.8512 3.47561 24.9171 3.47416 22.1758 0.821133C21.2146 -0.110336 19.8262 0.0638521 18.8508 0.969807C16.1454 3.47157 11.2398 3.46181 8.51275 0.825417C7.55151 -0.106052 6.14179 0.0847581 5.15929 0.990711C4.05577 2.00471 2.59623 2.6611 1.05123 2.85187C0.488758 2.91822 0.0829582 3.50009 0.0829968 4.15691L0.0831544 6.83406C0.0831989 7.59065 0.624348 8.231 1.27225 8.16468C3.32277 7.95743 5.26646 7.21804 6.92532 6.01298C10.9482 8.89086 16.6797 8.85098 20.5955 6.01701C24.6184 8.89489 30.3499 8.85501 34.2657 6.02104C35.9247 7.20214 37.8898 7.95931 39.8977 8.16776C40.5456 8.23446 41.0867 7.59443 41.0866 6.83784L41.0865 4.21057C41.0935 3.54544 40.6805 2.93007 40.1038 2.85507Z" fill="white"/>
</svg>